# xmcd
#
# Track frame offsets:
#	150
#	15925
#	36042
#	60092
#	82285
#	105452
#	122395
#	145135
#	150472
#
# Disc length: 2254 seconds
#
# Revision: 0
# Processed by: cddbd v1.5.2PL0 Copyright (c) Steve Scherf et al.
# Submitted via: EasyCDDAExtractor 11.5.3.1
#
DISCID=5d08cc09
DTITLE=JT Nero - Demons
DYEAR=2008
DGENRE=Indie
TTITLE0=Who shot Sam Cooke?
TTITLE1=The sun ain't your friend
TTITLE2=Diamond cutter
TTITLE3=How it runs
TTITLE4=White swans
TTITLE5=Everything you hoped for is coming true
TTITLE6=Broken mind
TTITLE7=Untitled 1
TTITLE8=Untitled 2
EXTD=
EXTT0=
EXTT1=
EXTT2=
EXTT3=
EXTT4=
EXTT5=
EXTT6=
EXTT7=
EXTT8=
PLAYORDER=
